<svg width="1440" height="767" viewBox="0 0 1440 767" fill="none" xmlns="http://www.w3.org/2000/svg">
<path d="M718.939 692.061C719.525 692.646 720.475 692.646 721.061 692.061L730.607 682.515C731.192 681.929 731.192 680.979 730.607 680.393C730.021 679.808 729.071 679.808 728.485 680.393L720 688.879L711.515 680.393C710.929 679.808 709.979 679.808 709.393 680.393C708.808 680.979 708.808 681.929 709.393 682.515L718.939 692.061ZM718.5 671L718.5 691L721.5 691L721.5 671L718.5 671Z" fill="#3A4443"/>
<rect x="657" y="391" width="16" height="20" fill="#D9D9D9"/>
<rect x="684" y="391" width="9" height="20" fill="#D9D9D9"/>
</svg>
